Coordinates
version=1
nRows=16
nColumns=22
inDegrees=yes

Units are S.I. units (second, meters, Newtons, ...)
If the header above contains a line with 'inDegrees', this indicates whether rotational values are in degrees (yes) or radians (no).

endheader
time	pelvis_tilt	pelvis_list	pelvis_rotation	pelvis_tx	pelvis_ty	pelvis_tz	hip_flexion_r	hip_adduction_r	hip_rotation_r	knee_angle_r	ankle_angle_r	subtalar_angle_r	hip_flexion_l	hip_adduction_l	hip_rotation_l	knee_angle_l	ankle_angle_l	subtalar_angle_l	lumbar_extension	lumbar_bending	lumbar_rotation
      2.36000000	      5.56641493	      4.97137933	    -34.10772532	     -0.17163885	      0.88420832	      0.00296913	      2.23765601	     -8.88051629	      4.61306953	    -60.85772946	      3.06317672	     -3.81895171	     17.92620446	      6.37377202	    -15.87728548	    -27.37208563	     10.15794681	     -7.74898137	     -9.24004739	     -9.78940675	     10.53225666
      2.37000000	      5.74637645	      5.02340056	    -34.30558853	     -0.16311434	      0.88576002	      0.00636248	      4.04428143	     -9.17251430	      4.62946363	    -62.85948400	      3.85200245	     -4.72394371	     16.80780790	      6.69813348	    -16.15792481	    -26.77587446	     10.54503292	     -7.58804369	     -9.53321565	     -9.94706020	     10.33017630
      2.38000000	      5.88878131	      5.02599827	    -34.43183207	     -0.15458246	      0.88738887	      0.00968853	      5.78427019	     -9.39714126	      4.54265320	    -64.50395406	      4.69155523	     -5.42882493	     15.68061217	      6.98461089	    -16.37150926	    -26.14877010	     10.84612794	     -7.47537083	     -9.81517633	    -10.01480641	     10.03919048
      2.39000000	      5.97911071	      4.88566678	    -34.44675859	     -0.14608933	      0.88912127	      0.01292039	      7.37645555	     -9.44174349	      4.32714477	    -65.76116118	      5.61428556	     -6.63729874	     14.53846437	      7.14488372	    -16.40177207	    -25.57094469	     11.24940133	     -7.34469536	    -10.15188513	     -9.89645746	      9.70492393
      2.40000000	      6.01587229	      4.72206566	    -34.38365928	     -0.13750030	      0.89087339	      0.01610224	      8.89844255	     -9.43863620	      4.00966753	    -66.65245701	      6.48928237	     -7.50139273	     13.38962909	      7.27802933	    -16.36082727	    -24.91929404	     11.55990237	     -7.25676489	    -10.42720504	     -9.69973861	      9.31143186
      2.41000000	      6.01526149	      4.49208397	    -34.22326369	     -0.12887982	      0.89262322	      0.01919741	     10.30424903	     -9.35261473	      3.58309316	    -67.19649819	      7.33043615	     -8.30677109	     12.24444312	      7.33648357	    -16.24094912	    -24.29296798	     11.88646738	     -7.16878697	    -10.70648844	     -9.39539255	      8.84456260
      2.42000000	      5.98648999	      4.23444030	    -33.99365669	     -0.12022330	      0.89431920	      0.02223364	     11.61619572	     -9.22708745	      3.08016319	    -67.41222647	      8.13337609	     -8.97345019	     11.10457874	      7.35287259	    -16.08473493	    -23.66090360	     12.21469242	     -7.07153157	    -10.96686614	     -9.02931082	      8.33163437
      2.43000000	      5.93414359	      3.96112092	    -33.73993087	     -0.11150393	      0.89591150	      0.02531275	     12.84719212	     -9.07249824	      2.54341091	    -67.32565308	      8.92974305	     -9.75014662	      9.96328895	      7.32113643	    -15.96949813	    -23.01694134	     12.52100917	     -6.94472951	    -11.17650988	     -8.63017506	      7.86915126
      2.44000000	      5.88779171	      3.68435417	    -33.40794787	     -0.10269556	      0.89740497	      0.02831574	     13.96430672	     -8.94156136	      1.91777888	    -66.94854834	      9.66216008	    -10.34242322	      8.81115019	      7.29173131	    -15.78130078	    -22.36628413	     12.81022702	     -6.78704508	    -11.38220517	     -8.21145326	      7.33724190
      2.45000000	      5.84087161	      3.40821223	    -33.02429620	     -0.09380683	      0.89875968	      0.03128531	     14.98520320	     -8.83596310	      1.22191143	    -66.30292008	     10.33656222	    -10.79645023	      7.66057596	      7.25242304	    -15.55250071	    -21.72061358	     13.08107307	     -6.60820487	    -11.56624681	     -7.78042171	      6.79705156
      2.46000000	      5.80277088	      3.15114679	    -32.62232015	     -0.08489831	      0.89992725	      0.03427142	     15.93017852	     -8.75842515	      0.51145174	    -65.42101911	     11.00212918	    -11.21152082	      6.52511324	      7.21361474	    -15.32636255	    -21.09751825	     13.36471228	     -6.39714663	    -11.72834796	     -7.36597525	      6.21466003
      2.47000000	      5.76928048	      2.93354995	    -32.19410300	     -0.07594221	      0.90085807	      0.03726163	     16.81583274	     -8.76206924	     -0.27364913	    -64.32365208	     11.66810439	    -11.52168297	      5.43957228	      7.18099992	    -15.14874140	    -20.53642852	     13.68770587	     -6.17879770	    -11.85258742	     -6.99227055	      5.63962414
      2.48000000	      5.75791377	      2.69621899	    -31.81532731	     -0.06702626	      0.90166534	      0.04038983	     17.59220618	     -8.73584093	     -1.01558805	    -62.99280563	     12.36355302	    -12.16633044	      4.31690878	      7.12499701	    -14.97383718	    -19.96231389	     13.94089978	     -5.81118081	    -11.98835675	     -6.62351272	      5.15267743
      2.49000000	      5.70886743	      2.51830666	    -31.37755904	     -0.05809747	      0.90215420	      0.04344514	     18.36651565	     -8.78805970	     -1.85481171	    -61.48971282	     12.96478623	    -12.29259998	      3.32223819	      7.08238597	    -14.73578941	    -19.48986828	     14.27812509	     -5.60645543	    -12.05168228	     -6.28095452	      4.57670676
      2.50000000	      5.68727058	      2.32387120	    -30.96336828	     -0.04919286	      0.90251280	      0.04662244	     19.01791365	     -8.83430260	     -2.70574970	    -59.77487722	     13.55688995	    -12.44776624	      2.30666207	      7.01770139	    -14.51051254	    -19.04200117	     14.59956727	     -5.34103852	    -12.13974235	     -5.95109359	      4.05600212
      2.51000000	      5.67164015	      2.12074380	    -30.57518654	     -0.04033339	      0.90270735	      0.04992248	     19.57766543	     -8.86385538	     -3.56756860	    -57.86758344	     14.10446770	    -12.57550688	      1.29970491	      6.93019712	    -14.27829628	    -18.62405145	     14.90947760	     -5.03233752	    -12.23144108	     -5.63089114	      3.59939862
